<svg width="30" height="30" viewBox="0 0 30 30" fill="none" xmlns="http://www.w3.org/2000/svg">
<rect width="30" height="30" rx="8" fill="#ECECEC"/>
<path fill-rule="evenodd" clip-rule="evenodd" d="M11.3887 6C11.7694 6 12.0779 6.30996 12.0779 6.69231V6.91804C12.116 6.90819 12.1542 6.89864 12.1925 6.8894C14.039 6.4441 15.961 6.4441 17.8075 6.8894C17.8458 6.89864 17.884 6.90819 17.9221 6.91804V6.69231C17.9221 6.30996 18.2306 6 18.6113 6C18.9919 6 19.3005 6.30996 19.3005 6.69231V7.4325C21.2353 8.39375 22.6757 10.2082 23.1763 12.4022C23.6079 14.2936 23.6079 16.2618 23.1763 18.1533C22.554 20.8808 20.4792 23.0218 17.8075 23.666C15.961 24.1113 14.039 24.1113 12.1925 23.666C9.52085 23.0218 7.44599 20.8808 6.82367 18.1533C6.39211 16.2618 6.39211 14.2936 6.82367 12.4022C7.32425 10.2082 8.76466 8.39375 10.6995 7.43251V6.69231C10.6995 6.30996 11.0081 6 11.3887 6ZM15.5514 14.0769C15.5514 13.771 15.3045 13.5231 15 13.5231C14.6955 13.5231 14.4486 13.771 14.4486 14.0769V15.3692H13.1622C12.8577 15.3692 12.6108 15.6172 12.6108 15.9231C12.6108 16.229 12.8577 16.4769 13.1622 16.4769H14.4486L14.4486 17.7692C14.4486 18.0751 14.6955 18.3231 15 18.3231C15.3045 18.3231 15.5514 18.0751 15.5514 17.7692V16.4769H16.8378C17.1423 16.4769 17.3892 16.229 17.3892 15.9231C17.3892 15.6172 17.1423 15.3692 16.8378 15.3692H15.5514V14.0769Z" fill="#C3C3C3"/>
</svg>
