<svg width="30" height="30" viewBox="0 0 30 30" fill="none" xmlns="http://www.w3.org/2000/svg">
<rect width="30" height="30" rx="8" fill="#D4F9D9"/>
<path fill-rule="evenodd" clip-rule="evenodd" d="M11.3887 6C11.7694 6 12.0779 6.30996 12.0779 6.69231V6.91804C12.116 6.90819 12.1542 6.89864 12.1925 6.8894C14.039 6.4441 15.961 6.4441 17.8075 6.8894C17.8458 6.89864 17.884 6.90819 17.9221 6.91804V6.69231C17.9221 6.30996 18.2306 6 18.6113 6C18.9919 6 19.3005 6.30996 19.3005 6.69231V7.4325C21.2353 8.39375 22.6757 10.2082 23.1763 12.4022C23.6079 14.2936 23.6079 16.2618 23.1763 18.1533C22.554 20.8808 20.4792 23.0218 17.8075 23.666C15.961 24.1113 14.039 24.1113 12.1925 23.666C9.52085 23.0218 7.44599 20.8808 6.82367 18.1533C6.39211 16.2618 6.39211 14.2936 6.82367 12.4022C7.32425 10.2082 8.76466 8.39375 10.6995 7.43251V6.69231C10.6995 6.30996 11.0081 6 11.3887 6ZM17.4575 14.3882C17.6719 14.1355 17.6409 13.7569 17.3882 13.5425C17.1355 13.3281 16.7569 13.3591 16.5425 13.6118L14.439 16.0909L13.444 14.9964C13.2211 14.7512 12.8416 14.7331 12.5964 14.956C12.3512 15.1789 12.3331 15.5584 12.556 15.8036L14.0106 17.4036C14.1267 17.5313 14.2922 17.6029 14.4648 17.5999C14.6374 17.597 14.8004 17.5198 14.9121 17.3882L17.4575 14.3882Z" fill="#009F03"/>
</svg>
