<svg width="30" height="30" viewBox="0 0 30 30" fill="none" xmlns="http://www.w3.org/2000/svg">
<rect width="30" height="30" rx="8" fill="#FFDEDE"/>
<path fill-rule="evenodd" clip-rule="evenodd" d="M11.8887 6C12.2694 6 12.5779 6.30996 12.5779 6.69231V6.91804C12.616 6.90819 12.6542 6.89864 12.6925 6.8894C14.539 6.4441 16.461 6.4441 18.3075 6.8894C18.3458 6.89864 18.384 6.90819 18.4221 6.91804V6.69231C18.4221 6.30996 18.7306 6 19.1113 6C19.4919 6 19.8005 6.30996 19.8005 6.69231V7.4325C21.7353 8.39375 23.1757 10.2082 23.6763 12.4022C24.1079 14.2936 24.1079 16.2618 23.6763 18.1533C23.054 20.8808 20.9792 23.0218 18.3075 23.666C16.461 24.1113 14.539 24.1113 12.6925 23.666C10.0208 23.0218 7.94599 20.8808 7.32367 18.1533C6.89211 16.2618 6.89211 14.2936 7.32367 12.4022C7.82425 10.2082 9.26466 8.39375 11.1995 7.43251V6.69231C11.1995 6.30996 11.5081 6 11.8887 6ZM14.51 14.1615C14.2757 13.9272 13.8958 13.9272 13.6615 14.1615C13.4272 14.3958 13.4272 14.7757 13.6615 15.0101L14.6515 16L13.6615 16.9899C13.4272 17.2243 13.4272 17.6042 13.6615 17.8385C13.8958 18.0728 14.2757 18.0728 14.51 17.8385L15.5 16.8485L16.4899 17.8385C16.7243 18.0728 17.1042 18.0728 17.3385 17.8385C17.5728 17.6042 17.5728 17.2243 17.3385 16.9899L16.3485 16L17.3385 15.0101C17.5728 14.7757 17.5728 14.3958 17.3385 14.1615C17.1042 13.9272 16.7243 13.9272 16.4899 14.1615L15.5 15.1515L14.51 14.1615Z" fill="#FF7070"/>
</svg>
