<svg width="40" height="40" viewBox="0 0 40 40" fill="none" xmlns="http://www.w3.org/2000/svg">
<g clip-path="url(#clip0_1_1027)">
<rect width="40" height="40" rx="20" fill="#8B1D1D"/>
<rect width="40" height="40" fill="url(#paint0_linear_1_1027)"/>
<path fill-rule="evenodd" clip-rule="evenodd" d="M20.3829 17.1281C20.3829 15.7535 21.4973 14.6392 22.8719 14.6392C24.2465 14.6392 25.3608 15.7535 25.3608 17.1281C25.3608 18.5027 24.2465 19.6171 22.8719 19.6171C21.4973 19.6171 20.3829 18.5027 20.3829 17.1281ZM22.8719 15.7879C22.1317 15.7879 21.5317 16.3879 21.5317 17.1281C21.5317 17.8683 22.1317 18.4683 22.8719 18.4683C23.612 18.4683 24.2121 17.8683 24.2121 17.1281C24.2121 16.3879 23.612 15.7879 22.8719 15.7879ZM28.2595 24.1904C28.4241 23.7995 28.5574 23.3918 28.6563 22.9703C29.1146 21.0166 29.1146 18.9834 28.6563 17.0298C27.9945 14.2084 25.7916 12.0055 22.9703 11.3437C21.0166 10.8854 18.9834 10.8854 17.0297 11.3437C14.2084 12.0055 12.0055 14.2084 11.3437 17.0297C10.8854 18.9834 10.8854 21.0166 11.3437 22.9703C11.3923 23.1774 11.4492 23.3812 11.514 23.5813L12.1178 22.9777C14.3016 20.7943 17.8421 20.7943 20.0258 22.9777L21.7165 24.668L22.1597 24.2249C23.8579 22.5271 26.5837 22.547 28.2595 24.1904ZM27.701 25.2801L27.6765 25.2506C26.4761 23.8104 24.2978 23.7116 22.9719 25.0373L22.5289 25.4802L24.9422 27.8931C26.0581 27.2711 26.9993 26.3786 27.6794 25.302C27.6868 25.2948 27.694 25.2875 27.701 25.2801ZM23.8264 28.4019L19.2136 23.79C17.4785 22.0552 14.6652 22.0552 12.93 23.79L11.992 24.7279C13.0017 26.6839 14.8273 28.1397 17.0297 28.6563C18.9834 29.1146 21.0166 29.1146 22.9703 28.6563C23.2626 28.5877 23.5484 28.5026 23.8264 28.4019Z" fill="white"/>
</g>
<defs>
<linearGradient id="paint0_linear_1_1027" x1="6.5" y1="3" x2="30" y2="37" gradientUnits="userSpaceOnUse">
<stop stop-color="#1E29BF"/>
<stop offset="1" stop-color="#11037F"/>
</linearGradient>
<clipPath id="clip0_1_1027">
<rect width="40" height="40" rx="20" fill="white"/>
</clipPath>
</defs>
</svg>
